# xmcd
#
# Track frame offsets:
#	150
#	19840
#	38013
#	53020
#	67420
#	88413
#	109453
#	128473
#	148225
#
# Disc length: 2218 seconds
#
# Revision: 2
# Processed by: cddbd v1.5.2PL0 Copyright (c) Steve Scherf et al.
# Submitted via: EasyCDDAExtractor 15.3.0.1
#
DISCID=8508a809
DTITLE=Emmanuel - En La Soledad...
DYEAR=1983
DGENRE=Latin
TTITLE0=Tengo
TTITLE1=Estoy Loco
TTITLE2=Pertenezco A Ti
TTITLE3=Por
TTITLE4=Solo Voy
TTITLE5=Si Ese Tiempo Pudiera Volver
TTITLE6=El Ultimo Dia Del Otoño
TTITLE7=El Rey Azul
TTITLE8=El Año Que Vendra... Querido Amigo
EXTD=
EXTT0=
EXTT1=
EXTT2=
EXTT3=
EXTT4=
EXTT5=
EXTT6=
EXTT7=
EXTT8=
PLAYORDER=
